<?xml version="1.0" standalone="no"?>
<!DOCTYPE svg PUBLIC "-//W3C//DTD SVG 20010904//EN"
 "http://www.w3.org/TR/2001/REC-SVG-20010904/DTD/svg10.dtd">
<svg version="1.0" xmlns="http://www.w3.org/2000/svg"
 width="400.000000pt" height="400.000000pt" viewBox="0 0 400.000000 400.000000"
 preserveAspectRatio="xMidYMid meet">
<metadata>
Created by potrace 1.14, written by Peter Selinger 2001-2017
</metadata>
<g transform="translate(0.000000,400.000000) scale(0.100000,-0.100000)"
fill="#000000" stroke="none">
<path d="M1778 3919 c-7 -5 -30 -9 -52 -9 -21 0 -64 -7 -97 -15 -32 -8 -62
-15 -66 -14 -4 1 -15 0 -23 -3 -8 -3 -35 -11 -60 -18 -94 -26 -116 -34 -157
-52 -24 -10 -47 -18 -53 -18 -6 0 -19 -4 -30 -10 -45 -23 -64 -33 -97 -51 -18
-10 -38 -19 -43 -19 -11 0 -114 -63 -118 -72 -2 -5 -8 -8 -12 -8 -5 0 -28 -13
-52 -30 -89 -62 -130 -91 -144 -103 -34 -27 -230 -224 -244 -245 -8 -12 -19
-22 -25 -22 -5 -1 -23 -21 -40 -46 -96 -145 -140 -218 -176 -291 -22 -46 -44
-83 -49 -83 -6 0 -10 -11 -10 -25 0 -14 -8 -42 -19 -63 -10 -20 -22 -52 -26
-70 -4 -18 -13 -45 -21 -60 -8 -15 -14 -36 -14 -46 0 -11 -9 -45 -19 -75 -49
-142 -77 -595 -46 -726 8 -33 15 -77 15 -97 0 -41 29 -143 90 -318 7 -19 18
-48 26 -63 8 -16 14 -37 14 -47 0 -10 4 -21 9 -25 6 -3 29 -45 52 -93 23 -48
54 -103 70 -123 16 -20 29 -42 29 -49 0 -12 24 -43 88 -115 15 -17 36 -43 47
-59 21 -30 195 -206 204 -206 2 0 30 -23 62 -50 32 -28 62 -50 67 -50 6 0 12
-4 14 -8 5 -14 126 -92 142 -92 8 0 16 -4 18 -8 7 -20 312 -155 339 -152 28 4
40 0 33 -12 -5 -7 -2 -9 9 -5 9 3 17 1 19 -4 2 -6 19 -11 38 -12 19 -1 41 -8
48 -14 7 -7 19 -13 25 -13 7 0 6 5 -3 11 -11 8 -6 9 20 4 19 -3 71 -13 115
-21 85 -16 296 -27 293 -16 -1 4 3 17 10 29 6 12 9 28 6 36 -3 8 -1 18 5 22 6
3 11 14 10 23 0 14 -2 14 -10 -3 -8 -17 -9 -17 -4 5 2 14 5 28 5 33 0 4 7 7
16 7 12 0 15 -9 12 -37 -2 -33 0 -37 24 -44 18 -5 31 -3 39 7 6 8 18 14 25 14
8 0 14 4 14 9 0 5 9 11 20 14 11 3 20 1 20 -4 0 -5 5 -9 11 -9 8 0 8 5 -1 15
-7 8 -16 12 -21 9 -20 -12 -7 19 17 41 28 26 44 32 44 15 0 -5 -6 -10 -14 -10
-7 0 -19 -6 -25 -14 -16 -19 11 -29 44 -16 20 8 23 6 18 -6 -5 -14 -3 -14 18
-2 27 15 39 28 39 43 0 6 -3 6 -8 0 -4 -6 -20 -12 -35 -13 -23 -2 -26 0 -15
12 8 9 17 11 24 5 7 -6 11 1 11 20 0 39 20 57 76 65 26 4 47 12 47 18 0 6 -9
8 -20 5 -11 -3 -18 -1 -14 4 3 5 12 9 20 9 8 0 14 7 14 16 0 8 5 12 10 9 6 -3
10 1 10 10 0 13 6 16 23 11 33 -8 69 4 63 20 -3 8 -1 14 4 14 6 0 10 -4 10
-10 0 -5 7 -10 15 -10 8 0 15 7 15 15 0 8 6 15 13 15 8 0 7 4 -3 10 -20 13
-33 13 -25 0 3 -5 1 -10 -5 -10 -7 0 -10 6 -7 13 2 6 17 12 33 12 24 0 31 6
39 33 5 17 17 35 27 38 26 8 22 25 -5 19 -16 -4 -29 0 -42 15 -11 12 -15 20
-10 18 10 -3 15 4 15 21 0 5 -15 14 -32 21 -32 11 -32 12 -11 21 13 4 23 13
23 19 0 6 -5 8 -12 4 -7 -4 -8 -3 -4 5 5 8 12 9 20 2 7 -6 23 -15 37 -20 l24
-10 -22 -7 c-13 -3 -20 -10 -17 -16 3 -5 14 -6 25 -3 10 4 19 2 19 -4 0 -7 10
-7 30 0 17 6 30 16 30 21 0 6 6 5 15 -2 12 -10 15 -9 15 7 0 10 5 24 12 31 9
9 7 13 -5 18 -9 3 -17 13 -17 21 0 13 -3 13 -15 3 -22 -18 -19 4 5 31 10 13
19 18 20 12 0 -17 25 -16 39 1 9 11 9 15 -1 19 -10 3 -10 7 -1 17 9 10 8 16
-3 27 -7 8 -18 11 -24 8 -5 -3 -10 3 -10 14 0 13 -5 18 -13 15 -15 -5 -49 -59
-42 -65 2 -3 -7 -18 -20 -34 -19 -23 -24 -26 -25 -12 0 9 -5 17 -12 17 -9 0
-9 3 0 12 17 17 15 26 -5 31 -16 3 -16 5 2 12 11 5 24 13 28 19 5 6 6 0 2 -14
l-6 -25 25 28 c14 15 26 33 26 40 0 7 -4 6 -10 -3 -8 -12 -12 -12 -18 -2 -5 7
-13 12 -18 11 -5 -1 -27 0 -49 1 l-40 2 30 9 c70 24 115 51 115 70 0 12 13 27
30 37 16 9 30 23 30 31 0 11 -4 11 -18 -2 -10 -10 -22 -17 -26 -17 -14 0 17
46 51 76 32 27 34 33 24 52 -6 12 -18 22 -26 22 -11 0 -14 10 -12 35 1 19 5
35 10 35 4 0 6 3 5 8 -1 4 4 18 11 31 11 21 11 26 -8 44 -18 19 -19 21 -3 33
14 10 14 14 3 28 -8 9 -20 15 -26 12 -17 -6 -39 10 -31 23 4 6 12 11 17 11 6
0 7 -5 4 -10 -3 -5 -2 -10 4 -10 5 0 13 10 17 22 6 20 7 21 19 4 18 -24 25 -8
22 53 -1 38 -6 51 -17 51 -12 0 -12 2 -2 9 14 9 13 32 -3 43 -16 12 3 21 30
14 21 -5 23 -9 13 -25 -9 -14 -8 -23 5 -42 19 -27 23 -18 6 13 -9 17 -8 24 6
34 10 8 22 11 26 8 5 -3 9 0 9 5 0 6 -4 11 -10 11 -5 0 -10 5 -10 11 0 6 7 9
15 5 10 -4 15 1 15 14 0 24 8 25 38 4 21 -14 22 -14 22 12 0 23 3 25 25 20 14
-4 25 -2 25 4 0 5 5 10 10 10 6 0 10 -7 10 -15 0 -8 4 -15 9 -15 5 0 5 15 1
36 -8 34 -8 35 11 18 10 -9 16 -21 13 -26 -4 -6 2 -7 16 -3 19 6 22 4 17 -9
-4 -9 -2 -16 3 -16 5 0 12 9 15 21 7 19 7 20 21 2 12 -16 14 -15 15 17 1 19 1
43 0 54 -1 16 1 17 14 6 12 -10 13 -16 4 -26 -15 -18 11 -19 30 -1 11 10 12 9
7 -1 -11 -18 14 -48 25 -30 14 22 10 34 -16 46 -22 10 -24 14 -13 31 7 11 17
17 22 14 6 -4 5 -8 -2 -11 -8 -2 -3 -14 14 -35 14 -17 23 -38 21 -48 -3 -10 1
-23 9 -30 13 -11 16 -9 18 18 2 22 21 15 28 -9 6 -17 7 -14 3 9 -3 25 1 36 18
48 12 8 16 15 8 15 -11 0 -11 4 1 22 15 23 78 44 78 26 0 -5 9 -6 20 -3 11 4
20 2 20 -4 0 -6 -4 -11 -9 -11 -5 0 -11 -9 -14 -20 -3 -11 -1 -18 4 -14 5 3 6
-2 2 -11 -4 -11 -14 -16 -32 -13 -24 3 -26 1 -28 -32 -1 -35 -1 -35 10 -7 13
32 32 37 24 6 -7 -28 25 -66 40 -47 6 7 14 24 18 38 l7 25 -21 -24 c-12 -13
-23 -22 -26 -19 -8 8 8 47 20 48 6 1 9 8 7 16 -2 8 5 14 18 14 11 0 20 -5 20
-11 0 -7 14 6 31 27 18 23 28 46 25 57 -3 14 0 16 15 12 11 -4 18 -3 17 2 -5
14 24 73 35 73 6 0 2 7 -9 16 -12 10 -14 14 -4 11 9 -2 23 9 33 25 10 17 22
26 29 22 7 -4 8 -3 4 5 -4 6 -3 18 4 26 7 9 8 15 0 20 -5 3 -10 13 -10 21 0 8
5 12 10 9 11 -7 14 13 11 58 -1 15 3 27 10 27 8 0 8 4 1 13 -9 11 -16 41 -13
61 0 5 7 3 15 -3 10 -9 19 -5 40 16 15 14 25 31 23 37 -2 6 2 22 9 35 10 18
10 29 2 38 -6 7 -7 13 -2 13 5 0 10 36 10 79 2 70 0 79 -15 74 -12 -4 -13 -3
-2 5 8 6 11 17 6 32 -9 27 -10 32 -20 93 -4 26 -11 50 -16 52 -4 3 -3 17 3 30
8 19 7 27 -6 40 -9 9 -16 13 -17 8 0 -4 -4 2 -9 15 -5 12 -6 30 -3 39 4 11 3
14 -5 9 -7 -4 -12 -3 -12 3 0 5 5 11 11 13 6 2 -3 29 -21 66 -18 34 -30 69
-26 77 3 9 2 14 -3 11 -11 -7 -74 81 -66 94 3 5 -1 10 -9 10 -9 0 -15 3 -15 8
3 20 -4 34 -45 84 -143 176 -382 366 -601 479 -97 50 -353 149 -385 149 -10 0
-45 7 -77 15 -125 33 -256 46 -440 44 -100 -1 -188 -6 -195 -10z m1937 -1609
c3 -5 1 -10 -4 -10 -6 0 -11 5 -11 10 0 6 2 10 4 10 3 0 8 -4 11 -10z m-85
-250 c0 -5 -4 -10 -10 -10 -5 0 -10 5 -10 10 0 6 5 10 10 10 6 0 10 -4 10 -10z
m-37 -45 c-7 -21 -13 -19 -13 6 0 11 4 18 10 14 5 -3 7 -12 3 -20z m-183 -125
c0 -5 -4 -10 -10 -10 -5 0 -10 5 -10 10 0 6 5 10 10 10 6 0 10 -4 10 -10z
m-290 -20 c0 -5 -4 -10 -10 -10 -5 0 -10 5 -10 10 0 6 5 10 10 10 6 0 10 -4
10 -10z m344 -55 c-11 -8 -22 -15 -26 -15 -16 0 -7 19 14 35 28 19 39 0 12
-20z m-207 -17 c-3 -8 -6 -5 -6 6 -1 11 2 17 5 13 3 -3 4 -12 1 -19z m-557
-373 c0 -8 -4 -15 -10 -15 -5 0 -7 7 -4 15 4 8 8 15 10 15 2 0 4 -7 4 -15z
m-680 -317 c0 -45 -3 -79 -6 -76 -3 3 -5 37 -5 74 0 83 0 84 6 84 3 0 5 -37 5
-82z m24 -286 c9 -35 15 -69 12 -75 -2 -7 -5 -5 -5 4 -1 9 -8 19 -16 23 -8 3
-15 16 -15 28 0 13 -2 66 -4 118 -4 82 -3 86 3 30 5 -36 16 -94 25 -128z m451
-102 c-3 -5 -11 -10 -16 -10 -6 0 -7 5 -4 10 3 6 11 10 16 10 6 0 7 -4 4 -10z
m170 -11 c-8 -12 -35 -12 -35 0 0 11 22 20 33 14 4 -2 5 -9 2 -14z m-587 -84
c12 -48 8 -111 -16 -245 -3 -19 -5 -43 -4 -52 2 -22 -12 -23 -33 -2 -9 9 -19
14 -22 11 -3 -3 2 -13 11 -22 9 -9 16 -20 16 -25 0 -33 -68 -9 -68 24 0 11
-10 75 -22 141 -25 136 -27 180 -9 201 10 13 15 13 35 -1 29 -19 34 -19 34 -1
0 17 17 26 45 23 15 -2 23 -14 33 -52z m471 34 c-22 -13 -31 -11 -17 5 7 8 17
12 22 9 4 -3 2 -9 -5 -14z m-19 -53 c0 -2 -7 -9 -15 -16 -13 -11 -14 -10 -9 4
5 14 24 23 24 12z m40 -46 c-6 -12 -14 -19 -17 -16 -3 3 0 12 6 20 7 8 9 21 5
28 -5 10 -4 10 5 2 10 -9 10 -17 1 -34z"/>
<path d="M3306 1713 c-6 -14 -5 -15 5 -6 7 7 10 15 7 18 -3 3 -9 -2 -12 -12z"/>
<path d="M3100 1695 c0 -8 2 -15 4 -15 2 0 6 7 10 15 3 8 1 15 -4 15 -6 0 -10
-7 -10 -15z"/>
<path d="M3140 1696 c0 -8 5 -18 10 -21 6 -3 10 3 10 14 0 12 -4 21 -10 21 -5
0 -10 -6 -10 -14z"/>
<path d="M2835 1610 c3 -5 11 -10 16 -10 6 0 7 5 4 10 -3 6 -11 10 -16 10 -6
0 -7 -4 -4 -10z"/>
<path d="M2748 794 c-41 -22 -34 -37 7 -17 19 9 35 20 35 25 0 11 -11 9 -42
-8z"/>
<path d="M2720 650 c0 -5 5 -10 10 -10 6 0 10 5 10 10 0 6 -4 10 -10 10 -5 0
-10 -4 -10 -10z"/>
<path d="M2640 561 c-5 -11 -10 -27 -10 -36 0 -9 -4 -13 -10 -10 -5 3 -10 1
-10 -5 0 -7 -6 -10 -13 -7 -12 5 -67 -42 -67 -57 0 -4 11 -4 25 0 15 4 32 1
40 -6 13 -10 19 -10 33 4 10 9 25 16 33 16 8 0 26 14 41 30 l26 30 -26 6 c-50
11 -54 13 -47 34 8 26 -1 26 -15 1z"/>
<path d="M2650 425 c0 -8 5 -15 10 -15 6 0 10 7 10 15 0 8 -4 15 -10 15 -5 0
-10 -7 -10 -15z"/>
<path d="M2545 380 c3 -5 10 -10 16 -10 5 0 9 5 9 10 0 6 -7 10 -16 10 -8 0
-12 -4 -9 -10z"/>
<path d="M2650 370 c0 -5 5 -10 10 -10 6 0 10 5 10 10 0 6 -4 10 -10 10 -5 0
-10 -4 -10 -10z"/>
<path d="M2765 354 c-35 -27 -30 -37 13 -28 22 4 32 12 32 25 0 28 -13 29 -45
3z"/>
<path d="M2345 349 c-4 -6 -13 -8 -21 -5 -8 3 -14 1 -14 -4 0 -16 37 -11 44 5
6 17 0 20 -9 4z"/>
<path d="M2610 316 c0 -2 7 -7 16 -10 8 -3 12 -2 9 4 -6 10 -25 14 -25 6z"/>
<path d="M2353 268 c-18 -6 -33 -15 -33 -19 0 -13 18 -11 26 2 5 8 10 6 16 -5
5 -9 14 -16 20 -16 7 0 7 4 -1 13 -8 10 -7 17 1 25 14 14 14 14 -29 0z"/>
<path d="M2470 255 c-7 -9 -10 -18 -7 -22 8 -7 37 15 37 28 0 14 -16 11 -30
-6z"/>
<path d="M2254 225 c-15 -11 -16 -14 -3 -15 8 0 24 7 35 15 15 11 16 14 3 15
-8 0 -24 -7 -35 -15z"/>
<path d="M2190 216 c0 -9 5 -16 10 -16 6 0 10 4 10 9 0 6 -4 13 -10 16 -5 3
-10 -1 -10 -9z"/>
<path d="M2010 162 c0 -4 12 -9 27 -10 14 -1 23 1 19 5 -10 10 -46 14 -46 5z"/>
<path d="M2026 124 c-18 -17 -20 -24 -8 -24 4 0 13 9 20 20 15 24 9 26 -12 4z"/>
</g>
</svg>
